HIERARCHY
ROOT SpineBase
{
  OFFSET 0.000000 0.000000 0.000000
  CHANNELS 6 Xposition Yposition Zposition Zrotation Xrotation Yrotation
  JOINT SpineMid
  {
    OFFSET 0.000000 30.150995 0.000000
    CHANNELS 3 Zrotation Xrotation Yrotation
    JOINT SpineShoulder
    {
      OFFSET -0.103223 22.312809 -0.838680
      CHANNELS 3 Zrotation Xrotation Yrotation
      JOINT Neck
      {
        OFFSET -0.068285 7.368836 -0.623068
        CHANNELS 3 Zrotation Xrotation Yrotation
        JOINT Head
        {
          OFFSET -0.584750 11.810808 1.653004
          CHANNELS 3 Zrotation Xrotation Yrotation
          End Site
          {
            OFFSET 0 0 0
          }
        }
      }
      JOINT ShoulderLeft
      {
        OFFSET -9.010750 -5.595086 9.060247
        CHANNELS 3 Zrotation Xrotation Yrotation
        JOINT ElbowLeft
        {
          OFFSET -1.695563 -29.556325 8.933512
          CHANNELS 3 Zrotation Xrotation Yrotation
          JOINT WristLeft
          {
            OFFSET 0.476685 -22.730179 -5.302701
            CHANNELS 3 Zrotation Xrotation Yrotation
            JOINT HandLeft
            {
              OFFSET 0.427852 -5.353400 -1.900577
              CHANNELS 3 Zrotation Xrotation Yrotation
              JOINT HandTipLeft
              {
                OFFSET -0.909378 -4.520199 0.400345
                CHANNELS 3 Zrotation Xrotation Yrotation
                End Site
                {
                  OFFSET 0 0 0
                }
              }
              JOINT ThumbLeft
              {
                OFFSET 0.324957 2.310378 -3.634752
                CHANNELS 3 Zrotation Xrotation Yrotation
                End Site
                {
                  OFFSET 0 0 0
                }
              }
            }
          }
        }
      }
      JOINT ShoulderRight
      {
        OFFSET 2.826493 -4.529846 -13.844843
        CHANNELS 3 Zrotation Xrotation Yrotation
        JOINT ElbowRight
        {
          OFFSET 4.004725 -23.028390 -4.098337
          CHANNELS 3 Zrotation Xrotation Yrotation
          JOINT WristRight
          {
            OFFSET -6.323645 -22.470439 -2.097891
            CHANNELS 3 Zrotation Xrotation Yrotation
            JOINT HandRight
            {
              OFFSET -0.042835 -5.763141 2.689275
              CHANNELS 3 Zrotation Xrotation Yrotation
              JOINT HandTipRight
              {
                OFFSET -2.850980 -7.287143 1.622056
                CHANNELS 3 Zrotation Xrotation Yrotation
                End Site
                {
                  OFFSET 0 0 0
                }
              }
              JOINT ThumbRight
              {
                OFFSET -4.824474 2.265639 2.911629
                CHANNELS 3 Zrotation Xrotation Yrotation
                End Site
                {
                  OFFSET 0 0 0
                }
              }
            }
          }
        }
      }
    }
  }
  JOINT HipLeft
  {
    OFFSET -4.040440 0.373960 1.079352
    CHANNELS 3 Zrotation Xrotation Yrotation
    JOINT KneeLeft
    {
      OFFSET 0.764671 -21.247975 10.211806
      CHANNELS 3 Zrotation Xrotation Yrotation
      JOINT AnkleLeft
      {
        OFFSET 13.534204 -38.193032 5.342630
        CHANNELS 3 Zrotation Xrotation Yrotation
        JOINT FootLeft
        {
          OFFSET -2.794294 -5.625427 -3.128075
          CHANNELS 3 Zrotation Xrotation Yrotation
          End Site
          {
            OFFSET 0 0 0
          }
        }
      }
    }
  }
  JOINT HipRight
  {
    OFFSET 3.097237 1.067772 -7.922042
    CHANNELS 3 Zrotation Xrotation Yrotation
    JOINT KneeRight
    {
      OFFSET 6.775240 -26.448737 3.296481
      CHANNELS 3 Zrotation Xrotation Yrotation
      JOINT AnkleRight
      {
        OFFSET 8.200402 -31.330607 5.377018
        CHANNELS 3 Zrotation Xrotation Yrotation
        JOINT FootRight
        {
          OFFSET -4.185369 -6.154453 3.509692
          CHANNELS 3 Zrotation Xrotation Yrotation
          End Site
          {
            OFFSET 0 0 0
          }
        }
      }
    }
  }
}
MOTION
Frames: 13
Frame Time: 0.033333
53.649864 66.985802 334.573393 -1.480062 0.274971 46.846336 -0.147357 0.012692 -46.903272 0.096496 0.308647 -0.058702 -2.397096 3.034937 0.931217 0.000000 0.000000 0.000000 1.494332 -0.481527 0.128116 -0.000000 0.000000 0.000000 -61.999419 -35.294830 -0.444996 84.909827 20.222694 -39.289016 0.000000 0.000000 0.000000 0.000000 0.000000 0.000000 -107.930409 -1.254444 33.989495 24.771349 0.655134 -17.262605 47.016052 14.810108 -8.526488 -56.999235 -42.916172 -48.554617 0.000000 0.000000 0.000000 0.000000 0.000000 0.000000 -26.142447 0.606799 -56.621284 18.826889 23.432228 6.756784 -16.291892 22.612613 -2.058168 0.000000 0.000000 0.000000 3.368468 5.188372 -45.664141 1.001392 -8.510612 -2.220947 1.663655 23.494817 -15.272001 0.000000 0.000000 0.000000
53.645077 66.965071 334.637425 -1.506430 0.219261 46.798711 -0.052388 0.038081 -46.854159 0.086049 0.327566 -0.058099 -3.407368 3.772018 1.160349 0.000000 0.000000 0.000000 1.484807 -0.531501 0.127451 -0.000000 0.000000 0.000000 -67.376583 -48.305439 -14.201861 97.322998 32.005028 -56.862492 0.000000 0.000000 0.000000 0.000000 0.000000 0.000000 -107.877110 -1.124844 34.101621 24.844448 0.628129 -17.292308 45.978009 14.490609 -9.128031 -54.550214 -42.354488 -46.425864 0.000000 0.000000 0.000000 0.000000 0.000000 0.000000 -23.406613 0.254416 -55.649079 16.763132 21.119441 6.530988 -15.067897 22.679129 -2.550899 0.000000 0.000000 0.000000 3.548793 5.592622 -45.562190 1.352005 -8.855645 -2.223671 0.242170 23.962823 -16.068139 0.000000 0.000000 0.000000
53.627812 66.950378 334.694709 -1.573413 0.174690 46.455802 0.014810 0.087826 -46.512542 0.072747 0.343552 -0.061152 -3.873179 4.493465 1.325865 0.000000 0.000000 0.000000 1.555074 -0.585991 0.133944 -0.000000 0.000000 0.000000 -64.999121 -50.931467 -16.814960 99.155825 37.336556 -62.129718 0.000000 0.000000 0.000000 0.000000 0.000000 0.000000 -107.858578 -1.098397 34.114851 26.969609 -0.048363 -17.082947 39.908969 14.040912 -12.078819 -46.529258 -43.604397 -40.661518 0.000000 0.000000 0.000000 0.000000 0.000000 0.000000 -23.740733 0.047317 -55.471864 16.888633 21.596537 6.595447 -15.834983 22.676025 -2.088536 0.000000 0.000000 0.000000 3.773816 5.990879 -45.148252 1.678040 -9.154590 -2.213086 -1.822922 19.542843 -13.215087 0.000000 0.000000 0.000000
53.620988 66.932218 334.752870 -1.637884 0.136677 45.859736 0.069320 0.159145 -45.918343 0.059677 0.357260 -0.065047 -3.934617 5.086502 1.417719 0.000000 0.000000 0.000000 1.645289 -0.650637 0.142352 -0.000000 0.000000 0.000000 -57.212979 -45.586288 -9.791214 97.212096 39.404901 -59.931346 0.000000 0.000000 0.000000 0.000000 0.000000 0.000000 -107.719220 -1.093505 33.995359 27.299317 0.046871 -16.939057 39.261605 13.848995 -12.289472 -47.252099 -44.019191 -41.462892 0.000000 0.000000 0.000000 0.000000 0.000000 0.000000 -21.489580 -0.729361 -54.119865 15.093272 19.769394 6.201199 -18.352146 22.735715 -0.172555 0.000000 0.000000 0.000000 3.970439 6.439440 -44.475980 2.028340 -9.403067 -2.178971 -1.106127 14.547398 -9.350095 0.000000 0.000000 0.000000
53.626683 66.932125 334.802646 -1.692707 0.123687 44.880524 0.096135 0.236232 -44.941212 0.046166 0.376189 -0.069252 -3.725417 5.430866 1.440741 0.000000 0.000000 0.000000 1.746520 -0.730763 0.151951 -0.000000 0.000000 0.000000 -47.135304 -32.832169 0.373063 86.519372 40.683609 -49.642546 0.000000 0.000000 0.000000 0.000000 0.000000 0.000000 -107.521036 -1.062015 33.865643 28.354730 -0.213255 -16.763556 34.937612 12.205608 -15.324436 -39.840849 -43.371439 -34.532548 0.000000 0.000000 0.000000 0.000000 0.000000 0.000000 -19.972864 -0.995190 -52.720218 14.113262 18.010386 5.938983 -22.413308 22.736559 2.938330 0.000000 0.000000 0.000000 4.286204 6.708094 -43.388429 1.929184 -9.627089 -2.244130 -8.098795 12.911502 -11.113145 0.000000 0.000000 0.000000
53.631465 66.919672 334.837583 -1.737542 0.091073 43.527130 0.108429 0.283450 -43.589854 0.032305 0.379204 -0.073035 -3.337565 5.689442 1.415358 0.000000 0.000000 0.000000 1.823343 -0.745751 0.159030 -0.000000 0.000000 0.000000 -40.112699 -16.176001 8.249739 72.119629 37.459999 -35.854321 0.000000 0.000000 0.000000 0.000000 0.000000 0.000000 -107.317501 -1.088033 33.705315 29.172170 0.401116 -16.257919 32.616562 7.437431 -18.181310 -35.549340 -44.838765 -29.222863 0.000000 0.000000 0.000000 0.000000 0.000000 0.000000 -19.189028 -0.949605 -51.266774 14.163913 16.517285 5.751939 -27.952722 22.421453 6.931000 0.000000 0.000000 0.000000 4.215169 6.559439 -42.040085 1.799912 -9.206099 -2.152488 -8.260806 11.962089 -10.835247 0.000000 0.000000 0.000000
53.615930 66.903523 334.863088 -1.799237 0.051620 42.268825 0.125422 0.307727 -42.333759 0.023610 0.376148 -0.076476 -2.927133 5.544215 1.345593 0.000000 0.000000 0.000000 1.891343 -0.734770 0.165141 -0.000000 0.000000 0.000000 -34.683270 -0.388083 12.834660 58.721264 34.548278 -26.178852 0.000000 0.000000 0.000000 0.000000 0.000000 0.000000 -107.261179 -1.052371 33.806331 30.066261 1.715731 -15.521582 30.418677 -2.716743 -22.807192 -30.012914 -41.742513 -18.844226 0.000000 0.000000 0.000000 0.000000 0.000000 0.000000 -15.211348 -1.383469 -48.625823 11.021771 12.361738 4.792920 -33.250948 21.662026 11.661761 0.000000 0.000000 0.000000 4.269230 6.421891 -40.766134 1.556474 -8.976058 -2.140075 -7.251201 9.003273 -8.681525 0.000000 0.000000 0.000000
53.620590 66.838372 334.915325 -1.832060 -0.005256 41.609288 0.162491 0.345626 -41.675272 0.015293 0.374882 -0.078390 -2.716932 5.530938 1.315629 0.000000 0.000000 0.000000 1.926358 -0.730688 0.168294 -0.000000 0.000000 0.000000 -30.060857 11.510653 14.656822 48.526605 40.296345 -25.236729 0.000000 0.000000 0.000000 0.000000 0.000000 0.000000 -107.287690 -1.040133 33.887732 28.455817 1.353672 -16.070909 33.950835 3.238785 -19.060959 -35.613102 -48.021416 -28.334605 0.000000 0.000000 0.000000 0.000000 0.000000 0.000000 -9.638066 -1.646570 -45.848301 7.427473 8.159249 3.447408 -29.031438 22.415234 8.940558 0.000000 0.000000 0.000000 4.296592 6.082112 -40.133344 1.213226 -8.498799 -2.089817 -4.504017 4.439126 -4.713895 0.000000 0.000000 0.000000
53.636149 66.741364 334.971066 -1.834073 -0.067646 40.792291 0.205521 0.372825 -40.857974 0.005499 0.372096 -0.078558 -2.700716 5.364700 1.295596 0.000000 0.000000 0.000000 1.918082 -0.715771 0.167432 -0.000000 0.000000 0.000000 -27.577664 19.617741 15.672545 24.918698 28.968480 -18.032805 0.000000 0.000000 0.000000 0.000000 0.000000 0.000000 -107.400828 -1.007558 34.052336 27.590125 1.239044 -16.371257 35.800736 5.685225 -17.377221 -39.956339 -47.174992 -32.734782 0.000000 0.000000 0.000000 0.000000 0.000000 0.000000 -2.054748 -2.032960 -41.959145 0.453034 2.659477 0.782489 -27.881208 22.249511 9.610084 0.000000 0.000000 0.000000 4.908412 6.475191 -39.148123 0.664840 -9.236482 -2.411247 -1.523149 1.139036 -1.025060 0.000000 0.000000 0.000000
53.658246 66.625643 335.012885 -1.812905 -0.129286 40.015861 0.231605 0.390473 -40.080981 -0.000561 0.367055 -0.077785 -2.629222 5.075155 1.248950 0.000000 0.000000 0.000000 1.888581 -0.680691 0.164506 -0.000000 0.000000 0.000000 -26.054098 22.989930 15.717798 -10.318436 -14.441340 -20.744709 0.000000 0.000000 0.000000 0.000000 0.000000 0.000000 -107.609574 -0.964024 34.325466 29.678790 0.516837 -16.237838 27.882390 4.893926 -22.572883 -24.065119 -47.595456 -20.500834 0.000000 0.000000 0.000000 0.000000 0.000000 0.000000 1.471717 -1.066598 -40.004207 -2.097646 -0.469988 -0.471399 -27.613226 22.097557 10.003143 0.000000 0.000000 0.000000 4.874563 6.524390 -38.375201 0.626778 -9.142964 -2.389523 3.268005 -0.740795 2.880392 0.000000 0.000000 0.000000
53.689068 66.472475 335.046805 -1.777185 -0.169812 39.450464 0.235969 0.413181 -39.515008 -0.001814 0.371971 -0.076580 -2.502789 4.783719 1.193685 0.000000 0.000000 0.000000 1.860683 -0.666241 0.161884 -0.000000 0.000000 0.000000 -26.859740 24.427384 16.541582 -7.523471 -20.407242 -20.431842 0.000000 0.000000 0.000000 0.000000 0.000000 0.000000 -107.976572 -0.857302 34.814078 29.329571 -1.278752 -17.210055 26.660544 17.146795 -18.561970 -24.873291 -54.181551 -29.305980 0.000000 0.000000 0.000000 0.000000 0.000000 0.000000 5.631001 -1.718401 -37.491519 -7.027180 -1.983341 -2.542884 -26.614841 21.445113 10.114895 0.000000 0.000000 0.000000 4.781036 5.975310 -37.880334 0.088630 -8.407085 -2.321499 3.054294 7.242086 -3.147264 0.000000 0.000000 0.000000
53.710350 66.325197 335.075755 -1.739530 -0.201762 39.345894 0.243305 0.426142 -39.409551 0.000687 0.376958 -0.074749 -2.417162 4.390137 1.134819 0.000000 0.000000 0.000000 1.822148 -0.654297 0.158326 -0.000000 0.000000 0.000000 -28.156193 21.153429 16.401475 18.116592 15.921540 -15.714241 0.000000 0.000000 0.000000 0.000000 0.000000 0.000000 -108.602444 -0.703048 35.595988 29.612111 -3.077131 -18.104735 22.176522 25.884342 -17.108146 -22.331287 -60.189776 -33.702772 0.000000 0.000000 0.000000 0.000000 0.000000 0.000000 6.449648 -1.704951 -37.026179 -7.941530 -2.087997 -2.865906 -26.398894 21.080445 9.980121 0.000000 0.000000 0.000000 4.820914 5.665970 -37.801518 -0.372674 -8.124153 -2.357574 6.019144 5.523382 -0.402900 0.000000 0.000000 0.000000
53.722954 66.222780 335.071720 -1.708509 -0.239864 39.478791 0.263638 0.438490 -39.541505 0.004443 0.382072 -0.072730 -2.381759 4.008668 1.085516 0.000000 0.000000 0.000000 1.780586 -0.643785 0.154512 -0.000000 0.000000 0.000000 -28.658916 21.396121 16.745173 17.491489 1.654071 -13.413619 0.000000 0.000000 0.000000 0.000000 0.000000 0.000000 -108.921035 -0.523220 36.177498 29.358197 -4.494803 -18.920575 19.712383 31.683750 -15.290811 -19.011251 -59.557618 -33.236006 0.000000 0.000000 0.000000 0.000000 0.000000 0.000000 7.410804 -2.110787 -36.608992 -9.450349 -1.409381 -3.190356 -28.669472 19.471436 11.339263 0.000000 0.000000 0.000000 5.049660 6.120266 -37.853219 -0.363864 -9.023733 -2.608524 4.696110 13.610976 -6.930389 0.000000 0.000000 0.000000
